<svg id="Layer_1" data-name="Layer 1" xmlns="http://www.w3.org/2000/svg" xmlns:xlink="http://www.w3.org/1999/xlink" viewBox="0 0 200.42 47.21"><defs><style>.cls-1{fill:url(#radial-gradient);}.cls-2{fill:url(#radial-gradient-2);}.cls-3{fill:url(#radial-gradient-3);}.cls-4{fill:url(#radial-gradient-4);}.cls-5{fill:url(#radial-gradient-5);}.cls-6{fill:url(#radial-gradient-6);}.cls-7{fill:url(#radial-gradient-7);}.cls-8{fill:url(#radial-gradient-8);}.cls-9{fill:url(#radial-gradient-9);}.cls-10{fill:url(#radial-gradient-10);}.cls-11{fill:url(#radial-gradient-11);}.cls-12{fill:url(#radial-gradient-12);}.cls-13{fill:url(#radial-gradient-13);}.cls-14{fill:url(#radial-gradient-14);}.cls-15{fill:url(#radial-gradient-15);}.cls-16{fill:url(#radial-gradient-16);}.cls-17{fill:url(#radial-gradient-17);}.cls-18{fill:url(#radial-gradient-18);}.cls-19{fill:url(#radial-gradient-19);}.cls-20{fill:url(#radial-gradient-20);}.cls-21{fill:url(#radial-gradient-21);}.cls-22{fill:url(#radial-gradient-22);}.cls-23{fill:url(#radial-gradient-23);}.cls-24{fill:url(#radial-gradient-24);}.cls-25{fill:url(#radial-gradient-25);}.cls-26{fill:url(#radial-gradient-26);}.cls-27{fill:url(#radial-gradient-27);}.cls-28{fill:url(#radial-gradient-28);}.cls-29{fill:url(#radial-gradient-29);}.cls-30{fill:url(#radial-gradient-30);}.cls-31{fill:url(#radial-gradient-31);}.cls-32{fill:url(#radial-gradient-32);}.cls-33{fill:url(#radial-gradient-33);}.cls-34{fill:url(#radial-gradient-34);}.cls-35{fill:url(#radial-gradient-35);}.cls-36{fill:url(#radial-gradient-36);}.cls-37{fill:url(#radial-gradient-37);}</style><radialGradient id="radial-gradient" cx="-199.39" cy="412.63" r="1.02" gradientTransform="matrix(47.22, 0, 0, -50.47, 9583.93, 20872.23)" gradientUnits="userSpaceOnUse"><stop offset="0" stop-color="#fff"/><stop offset="0" stop-color="#fefefe"/><stop offset="0.07" stop-color="#f9babc"/><stop offset="0.13" stop-color="#f48286"/><stop offset="0.19" stop-color="#f0555b"/><stop offset="0.24" stop-color="#ee363d"/><stop offset="0.28" stop-color="#ec222a"/><stop offset="0.31" stop-color="#ec1c24"/><stop offset="0.48" stop-color="#ab1f18"/><stop offset="0.6" stop-color="#e11c21"/><stop offset="0.62" stop-color="#ec1c24"/></radialGradient><radialGradient id="radial-gradient-2" cx="-199.8" cy="412.08" r="1.11" gradientTransform="matrix(47.21, 0, 0, -46.4, 9628.34, 19163.15)" gradientUnits="userSpaceOnUse"><stop offset="0.09" stop-color="#ec1c24"/><stop offset="0.12" stop-color="#d7191d"/><stop offset="0.22" stop-color="#9a110a"/><stop offset="0.27" stop-color="#820f03"/><stop offset="0.32" stop-color="#860f04"/><stop offset="0.38" stop-color="#941108"/><stop offset="0.45" stop-color="#ab140f"/><stop offset="0.51" stop-color="#cb1819"/><stop offset="0.57" stop-color="#ec1c24"/><stop offset="0.65" stop-color="#ad1a17"/><stop offset="0.69" stop-color="#b91a19"/><stop offset="0.77" stop-color="#db1b21"/><stop offset="0.8" stop-color="#e91c24"/><stop offset="0.84" stop-color="#e01c22"/><stop offset="0.92" stop-color="#c71f1e"/><stop offset="0.93" stop-color="#c3201e"/></radialGradient><radialGradient id="radial-gradient-3" cx="-200.04" cy="411.97" r="0.55" gradientTransform="matrix(45.94, 0, 0, -43.48, 9362.93, 17936.07)" gradientUnits="userSpaceOnUse"><stop offset="0.54" stop-color="#fff"/><stop offset="0.66" stop-color="#fbfbfb"/><stop offset="0.75" stop-color="#f2f2f2"/><stop offset="0.83" stop-color="#e2e2e2"/><stop offset="0.9" stop-color="#cbcbcb"/><stop offset="0.93" stop-color="#bfbfbf"/><stop offset="0.95" stop-color="#c3c3c3"/><stop offset="0.97" stop-color="#d0d0d0"/><stop offset="0.98" stop-color="#e6e6e6"/><stop offset="1" stop-color="#fff"/></radialGradient><radialGradient id="radial-gradient-4" cx="-141.42" cy="306.08" r="1.26" gradientTransform="matrix(3.23, 0, 0, -3.23, 629.44, 1005.86)" gradientUnits="userSpaceOnUse"><stop offset="0" stop-color="#fff"/><stop offset="0.08" stop-color="#cbe9c9"/><stop offset="0.19" stop-color="#89ce83"/><stop offset="0.28" stop-color="#60bd58"/><stop offset="0.32" stop-color="#51b748"/><stop offset="0.45" stop-color="#32a142"/><stop offset="0.62" stop-color="#0d863c"/><stop offset="0.71" stop-color="#007d3a"/><stop offset="0.74" stop-color="#07803c"/><stop offset="0.79" stop-color="#1a8b45"/><stop offset="0.84" stop-color="#3a9d52"/><stop offset="0.9" stop-color="#67b665"/><stop offset="0.93" stop-color="#82c571"/></radialGradient><radialGradient id="radial-gradient-5" cx="-125.3" cy="276.58" r="1.26" gradientTransform="matrix(2.57, 0, 0, -2.57, 495.57, 724.11)" xlink:href="#radial-gradient-4"/><radialGradient id="radial-gradient-6" cx="-128.16" cy="281.36" r="1.26" gradientTransform="matrix(2.67, 0, 0, -2.66, 519.62, 763.56)" xlink:href="#radial-gradient-4"/><radialGradient id="radial-gradient-7" cx="-119.2" cy="265.84" r="1.26" gradientTransform="matrix(2.39, 0, 0, -2.39, 461.35, 647.81)" xlink:href="#radial-gradient-4"/><radialGradient id="radial-gradient-8" cx="-87.66" cy="208.45" r="1.26" gradientTransform="matrix(1.75, 0, 0, -1.75, 326.22, 371.28)" xlink:href="#radial-gradient-4"/><radialGradient id="radial-gradient-9" cx="-75.85" cy="186.72" r="1.26" gradientTransform="matrix(1.59, 0, 0, -1.58, 307.08, 312.85)" xlink:href="#radial-gradient-4"/><radialGradient id="radial-gradient-10" cx="-78.24" cy="191.5" r="1.26" gradientTransform="matrix(1.62, 0, 0, -1.62, 308.38, 319.37)" xlink:href="#radial-gradient-4"/><radialGradient id="radial-gradient-11" cx="-61.71" cy="160.25" r="1.26" gradientTransform="matrix(1.43, 0, 0, -1.42, 272.44, 237.21)" xlink:href="#radial-gradient-4"/><radialGradient id="radial-gradient-12" cx="-75.3" cy="187.46" r="1.26" gradientTransform="matrix(1.58, 0, 0, -1.59, 303.34, 313.85)" xlink:href="#radial-gradient-4"/><radialGradient id="radial-gradient-13" cx="-53.48" cy="148.34" r="1.25" gradientTransform="matrix(1.35, 0, 0, -1.36, 245.34, 207)" xlink:href="#radial-gradient-4"/><radialGradient id="radial-gradient-14" cx="-41.85" cy="122.95" r="1.26" gradientTransform="matrix(1.26, 0, 0, -1.25, 239.03, 162.33)" xlink:href="#radial-gradient-4"/><radialGradient id="radial-gradient-15" cx="-35.9" cy="114.86" r="1.27" gradientTransform="matrix(1.21, 0, 0, -1.21, 232.44, 158.07)" xlink:href="#radial-gradient-4"/><radialGradient id="radial-gradient-16" cx="27.76" cy="-0.17" r="1.26" gradientTransform="matrix(0.88, 0, 0, -0.88, 164.18, 9.69)" xlink:href="#radial-gradient-4"/><radialGradient id="radial-gradient-17" cx="30.94" cy="-5.01" r="1.26" gradientTransform="matrix(0.87, 0, 0, -0.87, 163.27, 16.48)" xlink:href="#radial-gradient-4"/><radialGradient id="radial-gradient-18" cx="-109.64" cy="247.91" r="1.26" gradientTransform="matrix(2.15, 0, 0, -2.14, 408.81, 541.59)" xlink:href="#radial-gradient-4"/><radialGradient id="radial-gradient-19" cx="-123.43" cy="273.31" r="1.26" gradientTransform="matrix(2.51, 0, 0, -2.51, 487.55, 706.43)" xlink:href="#radial-gradient-4"/><radialGradient id="radial-gradient-20" cx="-84.63" cy="201.55" r="1.26" gradientTransform="matrix(1.7, 0, 0, -1.69, 326.65, 365.34)" xlink:href="#radial-gradient-4"/><radialGradient id="radial-gradient-21" cx="-48.57" cy="137.54" r="1.26" gradientTransform="matrix(1.31, 0, 0, -1.31, 247.2, 207.2)" xlink:href="#radial-gradient-4"/><radialGradient id="radial-gradient-22" cx="17.52" cy="16.44" r="1.26" gradientTransform="matrix(0.92, 0, 0, -0.92, 168.01, 44.53)" xlink:href="#radial-gradient-4"/><radialGradient id="radial-gradient-23" cx="16.29" cy="20.29" r="1.27" gradientTransform="matrix(0.93, 0, 0, -0.93, 163.59, 62.73)" xlink:href="#radial-gradient-4"/><radialGradient id="radial-gradient-24" cx="-106.66" cy="242.75" r="1.26" gradientTransform="matrix(2.09, 0, 0, -2.08, 403.03, 527.13)" xlink:href="#radial-gradient-4"/><radialGradient id="radial-gradient-25" cx="-99.27" cy="230.68" r="1.26" gradientTransform="matrix(1.94, 0, 0, -1.95, 373.81, 465.18)" xlink:href="#radial-gradient-4"/><radialGradient id="radial-gradient-26" cx="-101.51" cy="233.75" r="1.26" gradientTransform="matrix(1.98, 0, 0, -1.98, 380.42, 473.95)" xlink:href="#radial-gradient-4"/><radialGradient id="radial-gradient-27" cx="-199.23" cy="412.03" r="0.64" gradientTransform="matrix(43.05, 0, 0, -43.06, 8762.67, 17758.09)" gradientUnits="userSpaceOnUse"><stop offset="0.02" stop-color="#fff"/><stop offset="0.06" stop-color="#e1f2df"/><stop offset="0.18" stop-color="#94d28e"/><stop offset="0.27" stop-color="#63be5b"/><stop offset="0.31" stop-color="#51b748"/><stop offset="0.33" stop-color="#4bb045"/><stop offset="0.59" stop-color="#15732e"/><stop offset="0.71" stop-color="#005b26"/></radialGradient><radialGradient id="radial-gradient-28" cx="-30.31" cy="105.21" r="1.26" gradientTransform="matrix(1.17, 0, 0, -1.18, 211.58, 167.32)" xlink:href="#radial-gradient-4"/><radialGradient id="radial-gradient-29" cx="-13.74" cy="74.21" r="1.26" gradientTransform="matrix(1.07, 0, 0, -1.07, 187.69, 82.68)" xlink:href="#radial-gradient-4"/><radialGradient id="radial-gradient-30" cx="38.55" cy="-20.73" r="1.26" gradientTransform="matrix(0.84, 0, 0, -0.84, 140.48, -15.69)" xlink:href="#radial-gradient-4"/><radialGradient id="radial-gradient-31" cx="-122.25" cy="271.1" r="1.26" gradientTransform="matrix(2.48, 0, 0, -2.48, 476.09, 701.63)" xlink:href="#radial-gradient-4"/><radialGradient id="radial-gradient-32" cx="-136.17" cy="296.19" r="1.26" gradientTransform="matrix(2.98, 0, 0, -2.97, 579.03, 902.73)" xlink:href="#radial-gradient-4"/><radialGradient id="radial-gradient-33" cx="-129.52" cy="284.89" r="1.26" gradientTransform="matrix(2.72, 0, 0, -2.73, 525.15, 803.33)" xlink:href="#radial-gradient-4"/><radialGradient id="radial-gradient-34" cx="-67.45" cy="172.28" r="1.26" gradientTransform="matrix(1.49, 0, 0, -1.49, 273.59, 300.45)" xlink:href="#radial-gradient-4"/><radialGradient id="radial-gradient-35" cx="-97.89" cy="226.5" r="1.26" gradientTransform="matrix(1.92, 0, 0, -1.91, 360.46, 469.62)" xlink:href="#radial-gradient-4"/><radialGradient id="radial-gradient-36" cx="-79.63" cy="193.61" r="1.26" gradientTransform="matrix(1.64, 0, 0, -1.63, 303.28, 356.62)" xlink:href="#radial-gradient-4"/><radialGradient id="radial-gradient-37" cx="-105.38" cy="240.75" r="1.26" gradientTransform="matrix(2.06, 0, 0, -2.06, 389.97, 529.73)" xlink:href="#radial-gradient-4"/></defs><title>Land Department</title><g id="Group_11061" data-name="Group 11061"><g id="Group_11059" data-name="Group 11059"><path id="Path_49880" data-name="Path 49880" class="cls-1" d="M172.51,47.21c-15.38,0-27.89-10.06-27.89-23.6S157.13,0,172.51,0"/><path id="Path_49881" data-name="Path 49881" class="cls-2" d="M172.52,0c15.38,0,27.9,10.06,27.9,23.6s-12.52,23.6-27.9,23.6"/><path id="Path_49882" data-name="Path 49882" class="cls-3" d="M198.56,23.57c0,12.7-11,23-26.05,23s-26-10.29-26-23,11-23,26-23S198.56,10.88,198.56,23.57Z"/></g><g id="Group_11060" data-name="Group 11060"><path id="Path_49883" data-name="Path 49883" class="cls-4" d="M176.1,19.51a.7.7,0,0,1-.7.7h-1.81a.69.69,0,0,1-.71-.69h0V17.69a.7.7,0,0,1,.69-.71h1.83a.7.7,0,0,1,.7.7h0Z"/><path id="Path_49884" data-name="Path 49884" class="cls-5" d="M175.47,15.14a.56.56,0,0,1-.56.56h-1.44a.56.56,0,0,1-.57-.56V13.69a.56.56,0,0,1,.57-.56h1.44a.56.56,0,0,1,.56.56h0Z"/><path id="Path_49885" data-name="Path 49885" class="cls-6" d="M179.92,17.62a.6.6,0,0,1-.59.58h-1.5a.58.58,0,0,1-.58-.58v-1.5a.58.58,0,0,1,.58-.58h1.5a.59.59,0,0,1,.59.58Z"/><path id="Path_49886" data-name="Path 49886" class="cls-7" d="M178.56,13.64a.53.53,0,0,1-.53.53h-1.34a.52.52,0,0,1-.52-.52h0V12.3a.52.52,0,0,1,.51-.52H178a.52.52,0,0,1,.53.52Z"/><path id="Path_49887" data-name="Path 49887" class="cls-8" d="M174.62,8.58a.38.38,0,0,1-.38.38h-1a.37.37,0,0,1-.37-.38v-1a.37.37,0,0,1,.37-.37h1a.38.38,0,0,1,.38.37Z"/><path id="Path_49888" data-name="Path 49888" class="cls-9" d="M188.12,18.23a.34.34,0,0,1-.34.34h-.89a.35.35,0,0,1-.35-.34v-.89a.35.35,0,0,1,.35-.35h.89a.35.35,0,0,1,.34.35Z"/><path id="Path_49889" data-name="Path 49889" class="cls-10" d="M183.3,10.87a.35.35,0,0,1-.36.35H182a.35.35,0,0,1-.35-.35V10a.36.36,0,0,1,.36-.34H183a.35.35,0,0,1,.35.35Z"/><path id="Path_49890" data-name="Path 49890" class="cls-11" d="M185.46,10.18a.31.31,0,0,1-.3.3h-.82a.33.33,0,0,1-.32-.3V9.37a.33.33,0,0,1,.32-.32h.81a.32.32,0,0,1,.31.3v.83Z"/><path id="Path_49891" data-name="Path 49891" class="cls-12" d="M185.75,17.13a.34.34,0,0,1-.34.34h-.91a.34.34,0,0,1-.33-.34h0v-.89a.35.35,0,0,1,.33-.36h.9a.35.35,0,0,1,.35.35h0Z"/><path id="Path_49892" data-name="Path 49892" class="cls-13" d="M174.22,6.08a.28.28,0,0,1-.29.3h-.77a.29.29,0,0,1-.28-.3h0V5.32a.29.29,0,0,1,.28-.3h.77a.3.3,0,0,1,.29.3h0Z"/><path id="Path_49893" data-name="Path 49893" class="cls-14" d="M187.6,10.16a.27.27,0,0,1-.27.27h-.71a.3.3,0,0,1-.28-.27V9.45a.29.29,0,0,1,.28-.27h.71a.28.28,0,0,1,.27.27Z"/><path id="Path_49894" data-name="Path 49894" class="cls-15" d="M190,19.73a.26.26,0,0,1-.27.26h-.69a.26.26,0,0,1-.26-.25h0V19a.26.26,0,0,1,.26-.26h.69A.27.27,0,0,1,190,19Z"/><path id="Path_49895" data-name="Path 49895" class="cls-16" d="M189.46,10.48a.19.19,0,0,1-.18.19h-.5a.2.2,0,0,1-.2-.19V10a.21.21,0,0,1,.2-.19h.5a.19.19,0,0,1,.18.19Z"/><path id="Path_49896" data-name="Path 49896" class="cls-17" d="M191,21.46a.21.21,0,0,1-.19.2h-.48a.2.2,0,0,1-.19-.19h0V21a.19.19,0,0,1,.19-.18h.48a.2.2,0,0,1,.2.18Z"/><path id="Path_49897" data-name="Path 49897" class="cls-18" d="M175,11.58a.48.48,0,0,1-.47.48h-1.21a.48.48,0,0,1-.48-.46V10.37a.48.48,0,0,1,.47-.46h1.22a.47.47,0,0,1,.46.46Z"/><path id="Path_49898" data-name="Path 49898" class="cls-19" d="M179.5,21.41A.57.57,0,0,1,179,22h-1.42a.56.56,0,0,1-.55-.56V20a.56.56,0,0,1,.55-.55H179a.57.57,0,0,1,.55.55Z"/><path id="Path_49899" data-name="Path 49899" class="cls-20" d="M184,25.71a.37.37,0,0,1-.36.37h-1a.37.37,0,0,1-.37-.37h0v-1a.37.37,0,0,1,.37-.36h1a.36.36,0,0,1,.37.36h0Z"/><path id="Path_49900" data-name="Path 49900" class="cls-21" d="M184.76,28.08a.3.3,0,0,1-.28.29h-.75a.29.29,0,0,1-.28-.29h0v-.74a.28.28,0,0,1,.28-.28h.74a.27.27,0,0,1,.29.27h0Z"/><path id="Path_49901" data-name="Path 49901" class="cls-22" d="M185,30.11a.2.2,0,0,1-.2.2h-.53a.19.19,0,0,1-.2-.19h0v-.53a.2.2,0,0,1,.2-.19h.53a.21.21,0,0,1,.2.19Z"/><path id="Path_49902" data-name="Path 49902" class="cls-23" d="M179.56,44.6a.21.21,0,0,1-.21.21h-.52a.23.23,0,0,1-.21-.21v-.52a.22.22,0,0,1,.21-.2h.52a.21.21,0,0,1,.21.2Z"/><path id="Path_49903" data-name="Path 49903" class="cls-24" d="M182.48,23.19a.45.45,0,0,1-.45.45h-1.17a.45.45,0,0,1-.46-.44h0V22a.45.45,0,0,1,.45-.45H182a.45.45,0,0,1,.45.45h0Z"/><path id="Path_49904" data-name="Path 49904" class="cls-25" d="M183,16.76a.42.42,0,0,1-.43.42h-1.09a.41.41,0,0,1-.42-.41h0v-1.1a.43.43,0,0,1,.42-.43h1.09a.43.43,0,0,1,.43.43Z"/><path id="Path_49905" data-name="Path 49905" class="cls-26" d="M181.08,12.08a.43.43,0,0,1-.43.43h-1.12a.43.43,0,0,1-.43-.43h0V11a.43.43,0,0,1,.43-.43h1.12a.43.43,0,0,1,.43.43h0Z"/><path id="Path_49906" data-name="Path 49906" class="cls-27" d="M169.47,20.13l.63,3.72-.64-.2.74,3.61-.6-.17.75,3.39-.45-.12.71,3.48-.44-.07.69,3.44-.41,0,.69,3.58-.38-.11.54,3.25-5.72.81,6.5,0V1.67a13.82,13.82,0,0,0-.35,4.75c0,.19-.7-1.71-1-2.65a12.87,12.87,0,0,0,.93,4.1A20,20,0,0,1,170,4.92a17.68,17.68,0,0,0,1.51,4.37,33.31,33.31,0,0,1-2-3,16,16,0,0,0,1.87,4.17,14.49,14.49,0,0,1-2.14-2.9c0,1,2.11,4.38,2.11,4.51A19.45,19.45,0,0,1,169,9a13.69,13.69,0,0,0,2.29,4.56,33.56,33.56,0,0,1-2.47-3.1c.12,1.35,2.17,4.41,2.17,4.41-2.1-2.74-10.15-7.59-15.65-4.66a17.73,17.73,0,0,1,5.44-.12c.38.08-3.08.38-3.86.93a41.81,41.81,0,0,1,5.6-.38c-.42.15-3.11.5-3.67,1.09a19.82,19.82,0,0,1,5.65-.18c.12.05-3.62.25-4.3.8a28.21,28.21,0,0,1,6.36.22c-1,.11-3.74-.08-4.92.54a25.53,25.53,0,0,1,6.58.53c-.75,0-3.9-.3-5.1.4a17,17,0,0,1,6.78.88c-.71-.1-3.81-.69-5.35-.15A16.1,16.1,0,0,1,170,16.16c-2.15-.55-13.74-2.72-16.05,5.49a15,15,0,0,1,4-4.22,7.7,7.7,0,0,0-2.36,3.76,10.61,10.61,0,0,1,4-4.21s-2.15,1.93-2.44,3.58a11.06,11.06,0,0,1,4.15-3.68,8.33,8.33,0,0,0-2.77,3.26,13.38,13.38,0,0,1,4.29-3.4,17.38,17.38,0,0,0-2.82,3,13.54,13.54,0,0,1,5-3,12.2,12.2,0,0,0-3.56,2.83c1.75-1.18,4.19-2.56,6.51-2.53,0,0-3.74,1-4.86,2.25a14.64,14.64,0,0,1,6.18-.89c-1.75.5-10.15,3.77-8.65,12.26a32.77,32.77,0,0,1,1.2-4.78,25.65,25.65,0,0,0,.45,4,45.18,45.18,0,0,1,.83-5.56,19.3,19.3,0,0,0,.4,4.09c.1-.32.35-4.45.84-5.13a13.11,13.11,0,0,0,.12,4.05c.21-1.32.6-4.43,1.14-5.21a12.28,12.28,0,0,0,0,4.36A18.77,18.77,0,0,1,167,21a17.47,17.47,0,0,0-.13,4.51c.16-.39.53-3.89,1.45-5.28a16,16,0,0,0-.22,4.42,24.62,24.62,0,0,1,1.36-4.53Z"/><path id="Path_49907" data-name="Path 49907" class="cls-28" d="M177.11,44.55a.26.26,0,0,1-.26.25h-.67a.25.25,0,0,1-.25-.25v-.67a.26.26,0,0,1,.25-.26h.67a.26.26,0,0,1,.26.26h0Z"/><path id="Path_49908" data-name="Path 49908" class="cls-29" d="M174,4a.22.22,0,0,1-.22.24h-.61a.23.23,0,0,1-.24-.23h0V3.45a.24.24,0,0,1,.24-.24h.6a.23.23,0,0,1,.23.24Z"/><path id="Path_49909" data-name="Path 49909" class="cls-30" d="M173.72,2.33a.18.18,0,0,1-.18.18h-.47a.18.18,0,0,1-.18-.18V1.85a.18.18,0,0,1,.18-.18h.47a.17.17,0,0,1,.18.18h0Z"/><path id="Path_49910" data-name="Path 49910" class="cls-31" d="M175.36,32.16a.54.54,0,0,1-.54.54h-1.4a.54.54,0,0,1-.54-.54h0V30.77a.54.54,0,0,1,.54-.54h1.4a.54.54,0,0,1,.54.54Z"/><path id="Path_49911" data-name="Path 49911" class="cls-32" d="M175.9,24a.65.65,0,0,1-.65.65h-1.69a.65.65,0,0,1-.64-.65h0V22.32a.66.66,0,0,1,.64-.65h1.69a.65.65,0,0,1,.65.65h0Z"/><path id="Path_49912" data-name="Path 49912" class="cls-33" d="M175.64,28.4a.59.59,0,0,1-.59.59h-1.53a.6.6,0,0,1-.6-.59h0V26.86a.6.6,0,0,1,.59-.6h1.54a.59.59,0,0,1,.59.59h0Z"/><path id="Path_49913" data-name="Path 49913" class="cls-34" d="M174.41,44.47a.32.32,0,0,1-.32.33h-.84a.33.33,0,0,1-.33-.32h0v-.84a.34.34,0,0,1,.32-.33h.85a.33.33,0,0,1,.32.33Z"/><path id="Path_49914" data-name="Path 49914" class="cls-35" d="M174.8,38.83a.43.43,0,0,1-.43.42H173.3a.44.44,0,0,1-.42-.42V37.75a.42.42,0,0,1,.42-.41h1.07a.43.43,0,0,1,.43.41Z"/><path id="Path_49915" data-name="Path 49915" class="cls-36" d="M174.53,41.82a.34.34,0,0,1-.35.36h-.93a.36.36,0,0,1-.35-.36V40.9a.36.36,0,0,1,.35-.35h.93a.35.35,0,0,1,.35.35Z"/><path id="Path_49916" data-name="Path 49916" class="cls-37" d="M174.92,35.49a.45.45,0,0,1-.44.46h-1.17a.46.46,0,0,1-.45-.46V34.34a.45.45,0,0,1,.45-.45h1.17a.45.45,0,0,1,.44.45Z"/></g></g><g id="Group_11062" data-name="Group 11062"><path id="Path_49917" data-name="Path 49917" d="M72.77,18.24H70.65V16a.91.91,0,0,0-.87-.94h-.08L65,15V17.3a.87.87,0,0,1-.8.94h0l-3.21,0V14.45c0-1-1.8-.93-1.8-.93v5.82H65a1.86,1.86,0,0,0,1.9-1.82.76.76,0,0,0,0-.15V16h2v3.25h3.8"/><path id="Path_49918" data-name="Path 49918" d="M11.47,17.37a1.84,1.84,0,0,1-1.72,2H.56V13.79s1.8,0,1.8.93v3.42l6.36,0a.89.89,0,0,0,.83-.95h0V8.43s1.94,0,1.94,1.09Z"/><path id="Path_49919" data-name="Path 49919" d="M78,13c0,.32-.43.58-.95.58s-.94-.26-.94-.58.42-.58.94-.58S78,12.64,78,13Z"/><path id="Path_49920" data-name="Path 49920" d="M62.37,21.57c0,.32-.42.59-.95.59s-1-.26-1-.59.42-.58,1-.58S62.37,21.24,62.37,21.57Z"/><path id="Path_49921" data-name="Path 49921" d="M65.26,21.57c0,.32-.43.59-1,.59s-1-.26-1-.59.43-.58,1-.58S65.26,21.24,65.26,21.57Z"/><path id="Path_49922" data-name="Path 49922" d="M108.76,11.81c0,.32-.42.59-1,.59s-.94-.27-.94-.59.43-.58.94-.58S108.76,11.49,108.76,11.81Z"/><path id="Path_49923" data-name="Path 49923" d="M111.64,11.81c0,.32-.42.59-.94.59s-1-.27-1-.59.42-.58,1-.58S111.64,11.49,111.64,11.81Z"/><path id="Path_49924" data-name="Path 49924" d="M118.06,18.21v1h3.28c1.06,0,3.06-.63,3.06-2.18v-.93c0-1.12-2-1.09-2-1.09l0,2a1.08,1.08,0,0,1-1,1.15Z"/><path id="Path_49925" data-name="Path 49925" d="M126.31,19.08c.64-.34,2-1,2-2V9.74c0-1.11-2-1.09-2-1.09Z"/><path id="Path_49926" data-name="Path 49926" d="M116.09,23.66c.64-.34,2-1,2-2l0-5.71c0-1.11-2-1.09-2-1.09Z"/><path id="Path_49927" data-name="Path 49927" d="M87,23.66c.63-.34,2-1,2-2V15.94C89,14.83,87,14.85,87,14.85Z"/><path id="Path_49928" data-name="Path 49928" d="M91.48,18.12l-1,1.21h6.64a2.17,2.17,0,0,0,2.22-2.1,1.28,1.28,0,0,0,0-.19V9.72c0-1.12-1.94-1.1-1.94-1.1l0,8.33a1.1,1.1,0,0,1-1,1.16H91.48Z"/><path id="Path_49929" data-name="Path 49929" d="M100.88,19.06c.63-.33,2-1,2-2V9.73c0-1.12-2-1.09-2-1.09Z"/><path id="Path_49930" data-name="Path 49930" d="M83.11,19.06c.62-.33,2-1,2-2V9.73c0-1.12-2-1.09-2-1.09Z"/><path id="Path_49931" data-name="Path 49931" d="M93.22,17.88c.64-.34,2-1,2-2l0-6.13c0-1.12-2-1.1-2-1.1Z"/><path id="Path_49932" data-name="Path 49932" d="M34.15,18.12l-1,1.21h6.64a2.15,2.15,0,0,0,2.19-2.1V9.72c0-1.11-2-1.09-2-1.09L40,17a1.1,1.1,0,0,1-1,1.16Z"/><path id="Path_49933" data-name="Path 49933" d="M43.42,19.06c.63-.33,2-1,2-2V9.73c0-1.12-2-1.09-2-1.09Z"/><path id="Path_49934" data-name="Path 49934" d="M35.89,17.88c.62-.34,2-1,2-2V9.73c0-1.12-2-1.1-2-1.1Z"/><path id="Path_49935" data-name="Path 49935" d="M13.62,18.19l-1.06,1.07h6.63a2.16,2.16,0,0,0,2.2-2.11V9.64c0-1.11-1.95-1.09-1.95-1.09v8.5a1.07,1.07,0,0,1-1,1.14Z"/><path id="Path_49936" data-name="Path 49936" d="M15.52,17.81c.64-.33,2-1,2-2V9.67c0-1.11-1.95-1.09-1.95-1.09Z"/><path id="Path_49937" data-name="Path 49937" d="M34.35,7.14l3.53,0-.49-.55h-1a.61.61,0,0,1-.54-.64.55.55,0,0,1,.55-.55h1V4.73H35.83a1.13,1.13,0,0,0-1,1.21,1.36,1.36,0,0,0,.16.65C34.51,6.59,34.35,7.14,34.35,7.14Z"/><path id="Path_49938" data-name="Path 49938" d="M92.26,7.36h3.52l-.49-.56h-1a.6.6,0,0,1-.53-.63.57.57,0,0,1,.55-.56h1V5H93.73a1.11,1.11,0,0,0-1,1.2,1.27,1.27,0,0,0,.16.66C92.41,6.81,92.26,7.36,92.26,7.36Z"/><path id="Path_49939" data-name="Path 49939" d="M3.79,13.15H7.31l-.49-.56h-1A.58.58,0,0,1,5.28,12a.55.55,0,0,1,.54-.56h.06l1,0v-.65H5.27a1.13,1.13,0,0,0-1,1.2h0a1.34,1.34,0,0,0,.17.65C3.94,12.6,3.79,13.15,3.79,13.15Z"/><path id="Path_49940" data-name="Path 49940" d="M118.17,13.4l3.52,0-.48-.55h-1a.6.6,0,0,1-.52-.63.56.56,0,0,1,.55-.56h1V11h-1.6a1.12,1.12,0,0,0-1.05,1.19h0a1.18,1.18,0,0,0,.16.66C118.32,12.84,118.17,13.4,118.17,13.4Z"/><path id="Path_49957" data-name="Path 49957" d="M114.08,19.24v-4.7a1.17,1.17,0,0,0-.51-1.09,2.6,2.6,0,0,0-1.44-.34v5.1h-3.76a1.48,1.48,0,0,1-1.13-1.6,1.45,1.45,0,0,1,1.24-1.5h3.63v-1h-4.87a2.27,2.27,0,0,0-2,2.51c0,1.45.93,2.67,2,2.67Z"/><path id="Path_49958" data-name="Path 49958" d="M128.84,19.24l1.53-1h4.17a1.46,1.46,0,0,0,1.13-1.6,1.43,1.43,0,0,0-1.23-1.5h-3.63v-1h4.87a2.3,2.3,0,0,1,2,2.52c0,1.45-.93,2.66-2,2.66Z"/><path id="Path_49959" data-name="Path 49959" d="M72.65,19.28h6.8c1.08,0,2-1.22,2-2.67a2.29,2.29,0,0,0-2-2.51H74.55l.06,1h3.64a1.43,1.43,0,0,1,1.23,1.5,1.47,1.47,0,0,1-1.13,1.6H74.6V14.59a1.17,1.17,0,0,0-.51-1.09,2.6,2.6,0,0,0-1.44-.34v5.08"/><path id="Path_49960" data-name="Path 49960" d="M18.73,19.29h11.5c1.07,0,2-1.22,2-2.67a2.29,2.29,0,0,0-2-2.52h-6v1.05H29a1.42,1.42,0,0,1,1.23,1.51,1.47,1.47,0,0,1-1.13,1.6h-2.9V15.15H24.27v3.1H20.86"/><path id="Path_49943" data-name="Path 49943" d="M56.66,14.16H49.83c-1.07,0-2,1.22-2,2.67a2.28,2.28,0,0,0,2,2.51h4.87v-1H51a1.43,1.43,0,0,1-1.23-1.5,1.47,1.47,0,0,1,1.13-1.6h3.75v9.38s2,0,2-1.28Z"/></g><g id="Group_11063" data-name="Group 11063"><path id="Path_49941" data-name="Path 49941" d="M65.92,33h6.83c1.07,0,2,1.23,2,2.68a2.28,2.28,0,0,1-2,2.51H67.89v-1h3.64a1.43,1.43,0,0,0,1.23-1.5A1.47,1.47,0,0,0,71.65,34H67.89v8.1c0,1.32-2,1.28-2,1.28Z"/><path id="Path_49942" data-name="Path 49942" d="M18.37,38.17H11.54c-1.08,0-2-1.22-2-2.67a2.27,2.27,0,0,1,2-2.51H16.4v1H12.75a1.43,1.43,0,0,0-1.23,1.5,1.47,1.47,0,0,0,1.12,1.6H16.4v-5.2s2,0,2,1.07Z"/><path id="Path_49944" data-name="Path 49944" d="M39.14,38.16H32.31c-1.08,0-2-1.22-2-2.67a2.28,2.28,0,0,1,2-2.52h4.87v1H33.52a1.43,1.43,0,0,0-1.23,1.5,1.47,1.47,0,0,0,1.12,1.62h3.75V27.77s2-.05,2,1.27Z"/><path id="Path_49945" data-name="Path 49945" d="M28.82,38.17H27v-3a.88.88,0,0,0-.81-.93H21.94v4H20.13v-5h6.79A1.83,1.83,0,0,1,28.81,35v3.21Z"/><path id="Path_49946" data-name="Path 49946" d="M111.45,38h-1.86l0-3a.87.87,0,0,0-.81-.93h0l-4.22,0v4h-1.93l0-5,6.89,0a1.86,1.86,0,0,1,1.92,1.79v.16Z"/><path id="Path_49947" data-name="Path 49947" d="M133.4,38.06h-1.83l0-2.66c0-1.07-.83-1.1-.83-1.1l-4.23,0V38H124.6V32.84h6.91A2,2,0,0,1,133.43,35c0,.06,0,.11,0,.16Z"/><path id="Path_49948" data-name="Path 49948" d="M106.23,33c.92,0,1.84.57,1.84,2.11V38h-1.82V35.14c0-1.07-.83-1.1-.83-1.1"/><path id="Path_49949" data-name="Path 49949" d="M93.35,34H88.69v4.08H86.88V32.93h4.7c.73,0,1.51,0,1.79,1Z"/><path id="Path_49950" data-name="Path 49950" d="M135.57,34.22V38h2V34.25h3.36a1.85,1.85,0,0,0-1.7-1.4h-1.68v-.94s-1.61,0-1.9.94H134.5v1.39Z"/><path id="Path_49951" data-name="Path 49951" d="M94.84,34H95.9v4h2V34h3.36a1.53,1.53,0,0,0-1.7-1H97.85V31.9S96.25,32,96,33H94.84Z"/><path id="Path_49952" data-name="Path 49952" d="M43.31,28H51A2.15,2.15,0,0,1,53.21,30v5.81a2.15,2.15,0,0,1-2,2.27H44.31l1.4-1h4.56a1.08,1.08,0,0,0,1-1.15V30.29a1.09,1.09,0,0,0-1-1.13h-5v7.15c0,.85-1.35,1.52-2,1.87Z"/><path id="Path_49953" data-name="Path 49953" d="M0,28.08s1.83,0,1.83,1.07v6.94a1.08,1.08,0,0,0,1,1.14h5l1,1H2.2A2.13,2.13,0,0,1,0,36.18v-8.1Z"/><path id="Path_49954" data-name="Path 49954" d="M64.1,37c-.09.58-1,1-2,1h-4.6s-2,0-2-1.08V32.88h6.42c1.45,0,2.28.3,2.27,1.5s-1.07,1.5-2.13,1.49H57.46v-1h4c.15,0,.73,0,.73-.49s-.69-.46-.69-.46H57.46V37Z"/><path id="Path_49955" data-name="Path 49955" d="M122.05,37c-.09.58-1,1-2,1h-4.6s-2,0-2-1.08V32.88h6.42c1.45,0,2.28.3,2.27,1.5s-1.07,1.5-2.13,1.49h-4.61v-1h4c.15,0,.73,0,.73-.49s-.68-.46-.68-.46h-4.07V37Z"/><path id="Path_49956" data-name="Path 49956" d="M85,38v-4.7a1.17,1.17,0,0,0-.51-1.08A2.56,2.56,0,0,0,83,31.91V37H79.25a1.47,1.47,0,0,1-1.13-1.6,1.43,1.43,0,0,1,1.23-1.5H83v-1H78.13a2.28,2.28,0,0,0-2,2.51c0,1.45.93,2.67,2,2.67Z"/></g></svg>